<svg xmlns="http://www.w3.org/2000/svg" xmlns:xlink="http://www.w3.org/1999/xlink" width="1080" zoomAndPan="magnify" viewBox="0 0 810 449.999984" height="600" preserveAspectRatio="xMidYMid meet" version="1.0"><defs><g/></defs><rect x="-81" width="972" fill="#ffffff" y="-44.999998" height="539.99998" fill-opacity="1"/><rect x="-81" width="972" fill="#ffffff" y="-44.999998" height="539.99998" fill-opacity="1"/><g fill="#000000" fill-opacity="1"><g transform="translate(135.2344, 272.881152)"><g><path d="M 14.703125 -9.828125 C 7.273438 -17.929688 3.5625 -27.863281 3.5625 -39.625 C 3.5625 -51.394531 7.273438 -61.351562 14.703125 -69.5 C 22.128906 -77.65625 31.570312 -81.734375 43.03125 -81.734375 C 53.5625 -81.734375 62.234375 -78.429688 69.046875 -71.828125 L 69.046875 -79.40625 L 96.4375 -79.40625 L 96.4375 0 L 69.34375 0 L 69.34375 -8.984375 L 69.046875 -8.984375 C 62.234375 -1.441406 53.5625 2.328125 43.03125 2.328125 C 31.570312 2.328125 22.128906 -1.722656 14.703125 -9.828125 Z M 38 -53.09375 C 34.4375 -49.582031 32.65625 -45.09375 32.65625 -39.625 C 32.65625 -34.15625 34.359375 -29.691406 37.765625 -26.234375 C 41.171875 -22.773438 45.660156 -21.046875 51.234375 -21.046875 C 56.597656 -21.046875 61.007812 -22.800781 64.46875 -26.3125 C 67.925781 -29.820312 69.65625 -34.257812 69.65625 -39.625 C 69.65625 -45.09375 67.875 -49.582031 64.3125 -53.09375 C 60.757812 -56.601562 56.398438 -58.359375 51.234375 -58.359375 C 45.972656 -58.359375 41.5625 -56.601562 38 -53.09375 Z M 38 -53.09375 "/></g></g></g><g fill="#000000" fill-opacity="1"><g transform="translate(240.939883, 272.881152)"><g><path d="M 9.28125 0 L 9.28125 -79.40625 L 36.6875 -79.40625 L 36.6875 -67.953125 L 37 -67.953125 C 37.207031 -68.367188 37.539062 -68.882812 38 -69.5 C 38.46875 -70.125 39.472656 -71.207031 41.015625 -72.75 C 42.566406 -74.300781 44.21875 -75.695312 45.96875 -76.9375 C 47.726562 -78.175781 50 -79.285156 52.78125 -80.265625 C 55.570312 -81.242188 58.410156 -81.734375 61.296875 -81.734375 C 64.285156 -81.734375 67.222656 -81.316406 70.109375 -80.484375 C 73.003906 -79.660156 75.125 -78.835938 76.46875 -78.015625 L 78.640625 -76.78125 L 67.1875 -53.5625 C 63.78125 -56.445312 59.03125 -57.890625 52.9375 -57.890625 C 49.632812 -57.890625 46.796875 -57.164062 44.421875 -55.71875 C 42.046875 -54.28125 40.367188 -52.53125 39.390625 -50.46875 C 38.410156 -48.40625 37.710938 -46.648438 37.296875 -45.203125 C 36.890625 -43.753906 36.6875 -42.617188 36.6875 -41.796875 L 36.6875 0 Z M 9.28125 0 "/></g></g></g><g fill="#000000" fill-opacity="1"><g transform="translate(318.013564, 272.881152)"><g><path d="M 13.9375 -79.40625 L 13.9375 -108.984375 L 41.328125 -108.984375 L 41.328125 -79.40625 L 58.046875 -79.40625 L 58.046875 -58.515625 L 41.328125 -58.515625 L 41.328125 -33.28125 C 41.328125 -25.957031 43.390625 -22.296875 47.515625 -22.296875 C 48.554688 -22.296875 49.640625 -22.5 50.765625 -22.90625 C 51.898438 -23.320312 52.78125 -23.734375 53.40625 -24.140625 L 54.328125 -24.765625 L 61.140625 -2.625 C 55.265625 0.675781 48.554688 2.328125 41.015625 2.328125 C 35.859375 2.328125 31.421875 1.425781 27.703125 -0.375 C 23.992188 -2.1875 21.179688 -4.613281 19.265625 -7.65625 C 17.359375 -10.707031 15.992188 -13.910156 15.171875 -17.265625 C 14.347656 -20.617188 13.9375 -24.203125 13.9375 -28.015625 L 13.9375 -58.515625 L 2.484375 -58.515625 L 2.484375 -79.40625 Z M 13.9375 -79.40625 "/></g></g></g><g fill="#000000" fill-opacity="1"><g transform="translate(379.146299, 272.881152)"><g><path d="M 89.625 -35.90625 L 32.046875 -35.90625 C 32.046875 -30.332031 33.847656 -26.203125 37.453125 -23.515625 C 41.066406 -20.835938 44.988281 -19.5 49.21875 -19.5 C 53.65625 -19.5 57.164062 -20.09375 59.75 -21.28125 C 62.332031 -22.46875 65.273438 -24.816406 68.578125 -28.328125 L 88.390625 -18.421875 C 80.128906 -4.585938 66.40625 2.328125 47.21875 2.328125 C 35.238281 2.328125 24.96875 -1.773438 16.40625 -9.984375 C 7.84375 -18.191406 3.5625 -28.070312 3.5625 -39.625 C 3.5625 -51.1875 7.84375 -61.09375 16.40625 -69.34375 C 24.96875 -77.601562 35.238281 -81.734375 47.21875 -81.734375 C 59.800781 -81.734375 70.039062 -78.09375 77.9375 -70.8125 C 85.832031 -63.539062 89.78125 -53.144531 89.78125 -39.625 C 89.78125 -37.769531 89.726562 -36.53125 89.625 -35.90625 Z M 32.8125 -51.078125 L 63 -51.078125 C 62.382812 -55.210938 60.757812 -58.390625 58.125 -60.609375 C 55.488281 -62.828125 52.109375 -63.9375 47.984375 -63.9375 C 43.441406 -63.9375 39.828125 -62.75 37.140625 -60.375 C 34.460938 -58 33.019531 -54.898438 32.8125 -51.078125 Z M 32.8125 -51.078125 "/></g></g></g><g fill="#000000" fill-opacity="1"><g transform="translate(472.470447, 272.881152)"><g><path d="M 9.28125 0 L 9.28125 -79.40625 L 36.6875 -79.40625 L 36.6875 -71.046875 L 37 -71.046875 C 44.113281 -78.171875 51.695312 -81.734375 59.75 -81.734375 C 63.675781 -81.734375 67.570312 -81.21875 71.4375 -80.1875 C 75.3125 -79.15625 79.023438 -77.554688 82.578125 -75.390625 C 86.140625 -73.222656 89.03125 -70.148438 91.25 -66.171875 C 93.46875 -62.203125 94.578125 -57.585938 94.578125 -52.328125 L 94.578125 0 L 67.1875 0 L 67.1875 -44.890625 C 67.1875 -49.015625 65.867188 -52.625 63.234375 -55.71875 C 60.597656 -58.820312 57.164062 -60.375 52.9375 -60.375 C 48.8125 -60.375 45.070312 -58.769531 41.71875 -55.5625 C 38.363281 -52.363281 36.6875 -48.804688 36.6875 -44.890625 L 36.6875 0 Z M 9.28125 0 "/></g></g></g><g fill="#000000" fill-opacity="1"><g transform="translate(574.771053, 272.881152)"><g><path d="M 5.734375 19.5 L 28.171875 8.515625 C 32.296875 15.328125 39.46875 18.734375 49.6875 18.734375 C 54.4375 18.734375 58.847656 17.207031 62.921875 14.15625 C 67.003906 11.113281 69.046875 6.445312 69.046875 0.15625 L 69.046875 -5.734375 C 64.191406 -0.359375 55.519531 2.328125 43.03125 2.328125 C 31.570312 2.328125 22.128906 -1.722656 14.703125 -9.828125 C 7.273438 -17.929688 3.5625 -27.863281 3.5625 -39.625 C 3.5625 -51.394531 7.273438 -61.351562 14.703125 -69.5 C 22.128906 -77.65625 31.570312 -81.734375 43.03125 -81.734375 C 53.25 -81.734375 61.765625 -78.585938 68.578125 -72.296875 L 69.046875 -72.296875 L 69.046875 -79.40625 L 96.4375 -79.40625 L 96.4375 2.171875 C 96.4375 15.066406 92.148438 25.019531 83.578125 32.03125 C 75.015625 39.050781 63.71875 42.5625 49.6875 42.5625 C 26.988281 42.5625 12.335938 34.875 5.734375 19.5 Z M 38 -53.09375 C 34.4375 -49.582031 32.65625 -45.09375 32.65625 -39.625 C 32.65625 -34.15625 34.359375 -29.691406 37.765625 -26.234375 C 41.171875 -22.773438 45.660156 -21.046875 51.234375 -21.046875 C 56.597656 -21.046875 61.007812 -22.800781 64.46875 -26.3125 C 67.925781 -29.820312 69.65625 -34.257812 69.65625 -39.625 C 69.65625 -45.09375 67.875 -49.582031 64.3125 -53.09375 C 60.757812 -56.601562 56.398438 -58.359375 51.234375 -58.359375 C 45.972656 -58.359375 41.5625 -56.601562 38 -53.09375 Z M 38 -53.09375 "/></g></g></g><path stroke-linecap="butt" transform="matrix(0.75, 0, 0, 0.75, 17.949403, 321.42771)" fill="none" stroke-linejoin="miter" d="M -0.000245709 17.497429 L 279.879984 17.497429 " stroke="#292929" stroke-width="35" stroke-opacity="1" stroke-miterlimit="4"/><path stroke-linecap="butt" transform="matrix(0, 0.75, -0.75, 0, 43.50219, 134.514364)" fill="none" stroke-linejoin="miter" d="M 0.00168144 17.497714 L 273.350661 17.497714 " stroke="#292929" stroke-width="35" stroke-opacity="1" stroke-miterlimit="4"/><path stroke-linecap="butt" transform="matrix(-0.75, 0, 0, -0.75, 794.736817, 126.181161)" fill="none" stroke-linejoin="miter" d="M -0.00195264 17.501967 L 279.878277 17.501967 " stroke="#292929" stroke-width="35" stroke-opacity="1" stroke-miterlimit="4"/><path stroke-linecap="butt" transform="matrix(0, -0.75, 0.75, 0, 769.182555, 313.094508)" fill="none" stroke-linejoin="miter" d="M 0.00101015 17.501387 L 273.34999 17.501387 " stroke="#292929" stroke-width="35" stroke-opacity="1" stroke-miterlimit="4"/></svg>